<svg width="310.381" height="76.441" viewBox="0 0 310.381 76.441" xmlns="http://www.w3.org/2000/svg"><g id="svgGroup" stroke-linecap="round" fill-rule="evenodd" font-size="9pt" stroke="#000" stroke-width="0.25mm" fill="#000" style="stroke:#000;stroke-width:0.25mm;fill:#000"><path d="M 105.63 49.981 L 105.63 22.891 L 113.82 22.891 L 113.82 74.971 L 105.63 74.971 L 105.63 65.521 L 104.37 65.521 A 23.178 23.178 0 0 1 101.037 70.526 A 19.668 19.668 0 0 1 97.755 73.501 Q 93.66 76.441 87.36 76.441 A 22.846 22.846 0 0 1 82.125 75.859 A 19.789 19.789 0 0 1 79.433 75.023 Q 75.81 73.606 73.238 70.771 A 18.225 18.225 0 0 1 70.359 66.462 A 23.158 23.158 0 0 1 69.248 63.736 Q 67.919 59.798 67.836 54.661 A 42.702 42.702 0 0 1 67.83 53.971 L 67.83 22.891 L 76.02 22.891 L 76.02 52.921 A 31.698 31.698 0 0 0 76.286 57.179 Q 76.965 62.174 79.38 64.891 Q 82.312 68.189 87.962 68.61 A 23.035 23.035 0 0 0 89.67 68.671 Q 97.125 68.671 101.378 63.578 A 17.516 17.516 0 0 0 104.873 56.553 Q 105.536 53.944 105.618 50.869 A 32.96 32.96 0 0 0 105.63 49.981 Z M 173.04 74.971 L 173.04 66.991 L 171.78 66.991 Q 170.52 69.406 168.578 71.191 Q 166.635 72.976 164.378 74.131 Q 162.12 75.286 159.6 75.863 A 22.932 22.932 0 0 1 156.383 76.373 A 19.419 19.419 0 0 1 154.77 76.441 A 27.223 27.223 0 0 1 147.603 75.519 A 24.615 24.615 0 0 1 145.005 74.656 Q 140.49 72.871 137.078 69.511 A 22.484 22.484 0 0 1 132.786 63.555 A 27.362 27.362 0 0 1 131.723 61.163 A 27.928 27.928 0 0 1 130.113 54.832 A 36.959 36.959 0 0 1 129.78 49.771 L 129.78 48.091 A 34.143 34.143 0 0 1 130.311 41.943 A 26.775 26.775 0 0 1 131.775 36.803 A 27.015 27.015 0 0 1 134.626 31.436 A 22.844 22.844 0 0 1 137.13 28.403 Q 140.49 24.991 145.005 23.206 Q 149.52 21.421 154.56 21.421 Q 159.915 21.421 164.588 23.783 A 16.067 16.067 0 0 1 171.621 30.775 A 19.677 19.677 0 0 1 171.78 31.081 L 173.04 31.081 L 173.04 1.471 L 181.23 1.471 L 181.23 74.971 L 173.04 74.971 Z M 198.24 74.971 L 198.24 67.411 L 216.51 67.411 L 216.51 30.451 L 200.13 30.451 L 200.13 22.891 L 224.7 22.891 L 224.7 67.411 L 241.71 67.411 L 241.71 74.971 L 198.24 74.971 Z M 42 66.781 L 42 66.151 L 40.74 66.151 A 19.369 19.369 0 0 1 37.897 70.535 A 15.727 15.727 0 0 1 33.758 73.921 Q 29.295 76.441 24.36 76.441 A 26.866 26.866 0 0 1 17.416 75.565 A 24.115 24.115 0 0 1 14.805 74.708 Q 10.395 72.976 7.088 69.563 A 23.377 23.377 0 0 1 2.854 63.446 A 28.199 28.199 0 0 1 1.89 61.216 A 27.556 27.556 0 0 1 0.416 55.528 Q 0.004 52.844 0 49.819 A 45.048 45.048 0 0 1 0 49.771 L 0 48.091 Q 0 41.686 1.89 36.751 A 25.984 25.984 0 0 1 4.72 31.302 A 22.308 22.308 0 0 1 7.088 28.403 Q 10.395 24.991 14.805 23.206 Q 19.215 21.421 24.15 21.421 A 20.939 20.939 0 0 1 30.745 22.437 A 19.02 19.02 0 0 1 33.863 23.783 A 15.954 15.954 0 0 1 39.641 29.182 A 20.273 20.273 0 0 1 40.74 31.081 L 42 31.081 L 42 22.891 L 50.19 22.891 L 50.19 64.261 A 5.099 5.099 0 0 0 50.316 65.45 Q 50.699 67.04 52.243 67.341 A 4.097 4.097 0 0 0 53.025 67.411 L 55.65 67.411 L 55.65 74.971 L 50.085 74.971 Q 46.515 74.971 44.258 72.661 A 7.846 7.846 0 0 1 42.04 67.707 A 10.549 10.549 0 0 1 42 66.781 Z M 310.38 48.301 L 310.38 49.561 A 33.46 33.46 0 0 1 309.875 55.51 A 25.303 25.303 0 0 1 308.228 61.058 A 26.72 26.72 0 0 1 304.84 66.864 A 23.417 23.417 0 0 1 302.505 69.458 Q 298.935 72.871 294.158 74.656 Q 289.38 76.441 284.235 76.441 Q 278.985 76.441 274.26 74.656 Q 269.535 72.871 265.965 69.458 A 24.594 24.594 0 0 1 261.138 62.947 A 29.272 29.272 0 0 1 260.243 61.058 A 25.785 25.785 0 0 1 258.446 54.599 A 34.312 34.312 0 0 1 258.09 49.561 L 258.09 48.301 Q 258.09 41.896 260.243 36.908 A 26.489 26.489 0 0 1 263.996 30.647 A 23.89 23.89 0 0 1 266.018 28.456 Q 269.64 24.991 274.365 23.206 Q 279.09 21.421 284.235 21.421 Q 289.38 21.421 294.105 23.206 Q 298.83 24.991 302.453 28.456 A 25.054 25.054 0 0 1 307.593 35.536 A 29.305 29.305 0 0 1 308.228 36.908 Q 310.38 41.896 310.38 48.301 Z M 301.98 49.561 L 301.98 48.301 A 22.546 22.546 0 0 0 301.447 43.318 A 19.326 19.326 0 0 0 300.615 40.583 A 18.662 18.662 0 0 0 298.111 36.042 A 16.911 16.911 0 0 0 296.835 34.546 Q 294.42 32.026 291.165 30.608 Q 287.91 29.191 284.235 29.191 Q 280.56 29.191 277.305 30.608 Q 274.05 32.026 271.635 34.546 Q 269.22 37.066 267.855 40.583 A 20.297 20.297 0 0 0 266.576 46.244 A 24.374 24.374 0 0 0 266.49 48.301 L 266.49 49.561 A 24.478 24.478 0 0 0 266.87 53.964 A 19.317 19.317 0 0 0 267.855 57.488 A 18.662 18.662 0 0 0 270.36 62.03 A 16.911 16.911 0 0 0 271.635 63.526 Q 274.05 66.046 277.253 67.358 Q 280.455 68.671 284.235 68.671 A 19.06 19.06 0 0 0 289.107 68.065 A 16.927 16.927 0 0 0 291.218 67.358 Q 294.42 66.046 296.835 63.526 Q 299.25 61.006 300.615 57.488 A 19.937 19.937 0 0 0 301.788 52.743 A 25.528 25.528 0 0 0 301.98 49.561 Z M 173.04 49.561 L 173.04 48.301 A 22.546 22.546 0 0 0 172.507 43.318 A 19.326 19.326 0 0 0 171.675 40.583 A 19.322 19.322 0 0 0 169.343 36.24 A 17.155 17.155 0 0 0 167.948 34.546 Q 165.585 32.026 162.383 30.608 Q 159.18 29.191 155.61 29.191 A 17.448 17.448 0 0 0 149.236 30.351 A 16.772 16.772 0 0 0 148.733 30.556 Q 145.53 31.921 143.168 34.441 A 17.718 17.718 0 0 0 139.751 39.778 A 20.457 20.457 0 0 0 139.493 40.426 Q 138.18 43.891 138.18 48.091 L 138.18 49.771 Q 138.18 54.181 139.493 57.646 A 18.003 18.003 0 0 0 141.858 62.025 A 16.216 16.216 0 0 0 143.168 63.578 Q 145.53 66.046 148.68 67.358 Q 151.83 68.671 155.61 68.671 A 17.386 17.386 0 0 0 160.93 67.871 A 16.101 16.101 0 0 0 162.435 67.306 Q 165.585 65.941 167.948 63.421 Q 170.31 60.901 171.675 57.383 A 20.15 20.15 0 0 0 172.905 52.19 A 24.99 24.99 0 0 0 173.04 49.561 Z M 42 49.561 L 42 48.301 A 24.428 24.428 0 0 0 41.532 43.436 A 20.583 20.583 0 0 0 40.74 40.583 A 19.104 19.104 0 0 0 38.717 36.486 A 16.614 16.614 0 0 0 37.223 34.546 Q 34.965 32.026 31.868 30.608 Q 28.77 29.191 25.2 29.191 A 17.218 17.218 0 0 0 20.853 29.724 A 15.041 15.041 0 0 0 18.48 30.556 Q 15.435 31.921 13.178 34.388 Q 10.92 36.856 9.66 40.373 A 21.621 21.621 0 0 0 8.5 45.782 A 26.207 26.207 0 0 0 8.4 48.091 L 8.4 49.771 A 27.401 27.401 0 0 0 8.94 55.382 Q 9.988 60.391 13.073 63.683 A 15.55 15.55 0 0 0 23.771 68.623 A 21.13 21.13 0 0 0 25.2 68.671 A 17.29 17.29 0 0 0 29.98 68.026 A 15.542 15.542 0 0 0 31.973 67.306 Q 35.07 65.941 37.275 63.421 A 17.786 17.786 0 0 0 40.051 59.08 A 21.449 21.449 0 0 0 40.74 57.383 A 21.431 21.431 0 0 0 41.851 52.428 A 26.851 26.851 0 0 0 42 49.561 Z M 215.236 2.221 A 7.073 7.073 0 0 0 213.15 7.351 A 8.555 8.555 0 0 0 213.151 7.446 A 7.073 7.073 0 0 0 215.303 12.548 A 8.547 8.547 0 0 0 215.37 12.615 A 7.073 7.073 0 0 0 220.5 14.701 A 8.555 8.555 0 0 0 220.595 14.7 A 7.073 7.073 0 0 0 225.698 12.548 A 8.547 8.547 0 0 0 225.765 12.481 A 7.073 7.073 0 0 0 227.85 7.351 A 8.555 8.555 0 0 0 227.85 7.256 A 7.073 7.073 0 0 0 225.698 2.153 A 8.547 8.547 0 0 0 225.63 2.087 A 7.073 7.073 0 0 0 220.5 0.001 A 8.555 8.555 0 0 0 220.405 0.001 A 7.073 7.073 0 0 0 215.303 2.153 A 8.547 8.547 0 0 0 215.236 2.221 Z" vector-effect="non-scaling-stroke"/></g></svg>