<svg width="309.33" height="74.97" viewBox="0 0 309.33 74.97" xmlns="http://www.w3.org/2000/svg"><g id="svgGroup" stroke-linecap="round" fill-rule="evenodd" font-size="9pt" stroke="#000" stroke-width="0.25mm" fill="#000" style="stroke:#000;stroke-width:0.25mm;fill:#000"><path d="M 139.86 46.41 L 139.86 73.5 L 131.67 73.5 L 131.67 0 L 139.86 0 L 139.86 30.87 L 141.12 30.87 A 20.214 20.214 0 0 1 145.477 24.821 A 19.05 19.05 0 0 1 147.893 22.89 A 16.851 16.851 0 0 1 154.273 20.33 A 23.061 23.061 0 0 1 158.55 19.95 A 20.934 20.934 0 0 1 165.101 20.931 A 17.222 17.222 0 0 1 172.358 25.568 Q 177.66 31.185 177.66 42.42 L 177.66 73.5 L 169.47 73.5 L 169.47 44.1 A 29.193 29.193 0 0 0 169.146 39.598 Q 168.379 34.694 165.795 31.815 A 12.106 12.106 0 0 0 158.181 27.876 A 17.24 17.24 0 0 0 155.82 27.72 Q 148.365 27.72 144.113 32.813 A 17.516 17.516 0 0 0 140.618 39.838 Q 139.955 42.447 139.872 45.522 A 32.96 32.96 0 0 0 139.86 46.41 Z M 257.25 28.98 L 257.25 21.42 L 276.15 21.42 L 276.15 28.35 L 277.41 28.35 A 15.206 15.206 0 0 1 279.715 24.734 A 12.491 12.491 0 0 1 283.08 21.998 A 16.237 16.237 0 0 1 289.323 20.062 A 20.242 20.242 0 0 1 291.48 19.95 A 19.546 19.546 0 0 1 297.376 20.799 A 15.646 15.646 0 0 1 304.185 25.095 Q 309.015 30.24 309.33 40.11 L 300.72 41.37 A 23.9 23.9 0 0 0 300.446 37.614 Q 299.746 33.224 297.255 30.923 Q 293.79 27.72 288.75 27.72 A 14.161 14.161 0 0 0 286.073 27.961 A 10.373 10.373 0 0 0 283.133 28.98 Q 280.77 30.24 279.195 32.445 A 14.365 14.365 0 0 0 277.32 36.123 A 17.373 17.373 0 0 0 276.885 37.59 A 24.884 24.884 0 0 0 276.199 42.185 A 29.299 29.299 0 0 0 276.15 43.89 L 276.15 65.94 L 289.38 65.94 L 289.38 73.5 L 255.99 73.5 L 255.99 65.94 L 267.96 65.94 L 267.96 28.98 L 257.25 28.98 Z M 65.625 28.98 L 65.625 21.42 L 82.005 21.42 L 82.005 0 L 90.195 0 L 90.195 21.42 L 110.355 21.42 L 110.355 28.98 L 90.195 28.98 L 90.195 62.79 A 5.099 5.099 0 0 0 90.322 63.979 Q 90.704 65.569 92.248 65.87 A 4.097 4.097 0 0 0 93.03 65.94 L 107.835 65.94 L 107.835 73.5 L 90.09 73.5 Q 86.52 73.5 84.263 71.19 A 7.846 7.846 0 0 1 82.045 66.236 A 10.549 10.549 0 0 1 82.005 65.31 L 82.005 28.98 L 65.625 28.98 Z M 243.915 49.98 L 201.915 49.98 A 22.89 22.89 0 0 0 202.802 55.586 A 16.686 16.686 0 0 0 206.745 62.475 A 14.8 14.8 0 0 0 214.316 66.667 A 22.375 22.375 0 0 0 219.345 67.2 A 27.143 27.143 0 0 0 222.38 67.039 Q 223.871 66.871 225.164 66.528 A 15.663 15.663 0 0 0 225.75 66.36 A 16.831 16.831 0 0 0 228.42 65.294 A 13.223 13.223 0 0 0 230.423 64.05 A 12.822 12.822 0 0 0 233.157 61.262 A 11.979 11.979 0 0 0 233.573 60.638 Q 234.78 58.695 235.515 56.49 L 243.285 58.59 Q 241.08 65.835 235.148 70.403 Q 229.215 74.97 219.135 74.97 A 27.826 27.826 0 0 1 212.255 74.143 A 24.392 24.392 0 0 1 208.898 73.028 Q 204.225 71.085 200.865 67.515 A 25.22 25.22 0 0 1 196.111 60.222 A 29.247 29.247 0 0 1 195.615 59.01 A 28.643 28.643 0 0 1 193.892 51.551 A 35.158 35.158 0 0 1 193.725 48.09 L 193.725 45.57 A 27.097 27.097 0 0 1 194.911 37.487 A 25.135 25.135 0 0 1 195.668 35.385 Q 197.61 30.66 201.075 27.248 Q 204.54 23.835 209.213 21.893 A 25.719 25.719 0 0 1 217.993 19.98 A 29.897 29.897 0 0 1 219.345 19.95 A 29.28 29.28 0 0 1 224.618 20.402 A 21.283 21.283 0 0 1 230.423 22.313 A 27.138 27.138 0 0 1 235.119 25.296 A 22.198 22.198 0 0 1 238.088 28.14 Q 241.08 31.605 242.498 35.7 Q 243.866 39.653 243.914 43.019 A 17.1 17.1 0 0 1 243.915 43.26 L 243.915 49.98 Z M 52.29 46.83 L 52.29 48.09 A 33.46 33.46 0 0 1 51.785 54.039 A 25.303 25.303 0 0 1 50.138 59.587 A 26.72 26.72 0 0 1 46.75 65.393 A 23.417 23.417 0 0 1 44.415 67.987 Q 40.845 71.4 36.068 73.185 Q 31.29 74.97 26.145 74.97 Q 20.895 74.97 16.17 73.185 Q 11.445 71.4 7.875 67.988 A 24.594 24.594 0 0 1 3.048 61.476 A 29.272 29.272 0 0 1 2.153 59.587 A 25.785 25.785 0 0 1 0.356 53.128 A 34.312 34.312 0 0 1 0 48.09 L 0 46.83 Q 0 40.425 2.153 35.438 A 26.489 26.489 0 0 1 5.907 29.177 A 23.89 23.89 0 0 1 7.928 26.985 Q 11.55 23.52 16.275 21.735 Q 21 19.95 26.145 19.95 Q 31.29 19.95 36.015 21.735 Q 40.74 23.52 44.363 26.985 A 25.054 25.054 0 0 1 49.503 34.065 A 29.305 29.305 0 0 1 50.138 35.438 Q 52.29 40.425 52.29 46.83 Z M 43.89 48.09 L 43.89 46.83 A 22.546 22.546 0 0 0 43.357 41.847 A 19.326 19.326 0 0 0 42.525 39.113 A 18.662 18.662 0 0 0 40.021 34.571 A 16.911 16.911 0 0 0 38.745 33.075 Q 36.33 30.555 33.075 29.138 Q 29.82 27.72 26.145 27.72 Q 22.47 27.72 19.215 29.138 Q 15.96 30.555 13.545 33.075 Q 11.13 35.595 9.765 39.113 A 20.297 20.297 0 0 0 8.486 44.773 A 24.374 24.374 0 0 0 8.4 46.83 L 8.4 48.09 A 24.478 24.478 0 0 0 8.78 52.493 A 19.317 19.317 0 0 0 9.765 56.017 A 18.662 18.662 0 0 0 12.27 60.559 A 16.911 16.911 0 0 0 13.545 62.055 Q 15.96 64.575 19.163 65.888 Q 22.365 67.2 26.145 67.2 A 19.06 19.06 0 0 0 31.017 66.594 A 16.927 16.927 0 0 0 33.128 65.888 Q 36.33 64.575 38.745 62.055 Q 41.16 59.535 42.525 56.018 A 19.937 19.937 0 0 0 43.698 51.272 A 25.528 25.528 0 0 0 43.89 48.09 Z M 202.125 42.42 L 235.725 42.42 A 15.869 15.869 0 0 0 234.93 38.281 A 14.042 14.042 0 0 0 234.098 36.33 Q 232.68 33.6 230.423 31.71 Q 228.165 29.82 225.278 28.77 Q 222.39 27.72 219.345 27.72 A 19.208 19.208 0 0 0 214.609 28.29 A 17.204 17.204 0 0 0 212.888 28.823 A 16.525 16.525 0 0 0 208.077 31.546 A 15.689 15.689 0 0 0 207.638 31.92 Q 205.38 33.915 203.963 36.593 Q 202.545 39.27 202.125 42.42 Z" vector-effect="non-scaling-stroke"/></g></svg>