<svg width="499.38" height="95.971" viewBox="0 0 499.38 95.971" xmlns="http://www.w3.org/2000/svg"><g id="svgGroup" stroke-linecap="round" fill-rule="evenodd" font-size="9pt" stroke="#000" stroke-width="0.25mm" fill="#000" style="stroke:#000;stroke-width:0.25mm;fill:#000"><path d="M 267.015 47.881 L 267.015 74.971 L 258.825 74.971 L 258.825 1.471 L 267.015 1.471 L 267.015 32.341 L 268.275 32.341 A 20.214 20.214 0 0 1 272.631 26.292 A 19.05 19.05 0 0 1 275.047 24.361 A 16.851 16.851 0 0 1 281.428 21.801 A 23.061 23.061 0 0 1 285.705 21.421 A 20.934 20.934 0 0 1 292.255 22.402 A 17.222 17.222 0 0 1 299.512 27.038 Q 304.815 32.656 304.815 43.891 L 304.815 74.971 L 296.625 74.971 L 296.625 45.571 A 29.193 29.193 0 0 0 296.301 41.069 Q 295.534 36.165 292.95 33.286 A 12.106 12.106 0 0 0 285.336 29.347 A 17.24 17.24 0 0 0 282.975 29.191 Q 275.52 29.191 271.267 34.283 A 17.516 17.516 0 0 0 267.773 41.309 Q 267.11 43.918 267.027 46.993 A 32.96 32.96 0 0 0 267.015 47.881 Z M 491.19 85.261 L 491.19 66.991 L 489.93 66.991 A 17.834 17.834 0 0 1 486.346 71.717 A 16.08 16.08 0 0 1 483.052 74.078 Q 478.695 76.441 473.55 76.441 Q 468.788 76.441 464.545 74.973 A 25.903 25.903 0 0 1 463.68 74.656 Q 459.06 72.871 455.542 69.511 A 23.081 23.081 0 0 1 450.944 63.268 A 27.809 27.809 0 0 1 449.977 61.163 A 26.824 26.824 0 0 1 448.268 54.741 A 35.178 35.178 0 0 1 447.93 49.771 L 447.93 48.091 A 32.413 32.413 0 0 1 448.505 41.855 A 25.716 25.716 0 0 1 450.03 36.803 A 27.236 27.236 0 0 1 453.142 31.247 A 23.367 23.367 0 0 1 455.595 28.403 Q 459.06 24.991 463.68 23.206 Q 468.3 21.421 473.34 21.421 Q 479.01 21.421 483.262 23.888 A 16.796 16.796 0 0 1 489.441 30.18 A 20.487 20.487 0 0 1 489.93 31.081 L 491.19 31.081 L 491.19 22.891 L 499.38 22.891 L 499.38 87.781 A 9.237 9.237 0 0 1 498.956 90.64 A 7.636 7.636 0 0 1 497.122 93.661 A 7.581 7.581 0 0 1 492.194 95.933 A 10.3 10.3 0 0 1 491.295 95.971 L 457.38 95.971 L 457.38 88.411 L 488.355 88.411 A 3.64 3.64 0 0 0 489.528 88.238 Q 491.19 87.673 491.19 85.261 Z M 395.535 47.881 L 395.535 74.971 L 387.345 74.971 L 387.345 22.891 L 395.535 22.891 L 395.535 31.711 L 396.795 31.711 Q 400.897 22.973 410.147 21.655 A 24.445 24.445 0 0 1 413.595 21.421 A 23.51 23.51 0 0 1 419.851 22.211 A 17.388 17.388 0 0 1 427.98 27.038 Q 433.335 32.656 433.335 43.891 L 433.335 74.971 L 425.145 74.971 L 425.145 45.571 A 29.193 29.193 0 0 0 424.821 41.069 Q 424.054 36.165 421.47 33.286 A 12.106 12.106 0 0 0 413.856 29.347 A 17.24 17.24 0 0 0 411.495 29.191 Q 404.04 29.191 399.787 34.283 A 17.516 17.516 0 0 0 396.293 41.309 Q 395.63 43.918 395.547 46.993 A 32.96 32.96 0 0 0 395.535 47.881 Z M 235.095 54.601 L 243.285 56.491 Q 242.445 60.796 240.397 64.471 Q 238.35 68.146 235.2 70.823 Q 232.05 73.501 227.85 74.971 A 26.018 26.018 0 0 1 222.081 76.251 A 32.72 32.72 0 0 1 218.505 76.441 Q 213.045 76.441 208.162 74.656 Q 203.28 72.871 199.605 69.458 Q 195.93 66.046 193.777 61.111 A 25.308 25.308 0 0 1 191.98 54.732 A 33.316 33.316 0 0 1 191.625 49.771 L 191.625 48.511 A 31.802 31.802 0 0 1 192.232 42.173 A 25.743 25.743 0 0 1 193.778 37.171 A 26.04 26.04 0 0 1 197.457 30.985 A 23.422 23.422 0 0 1 199.605 28.666 Q 203.28 25.201 208.162 23.311 Q 213.045 21.421 218.505 21.421 A 29.054 29.054 0 0 1 224.631 22.046 A 25.061 25.061 0 0 1 227.64 22.891 A 23.902 23.902 0 0 1 233.965 26.192 A 22.276 22.276 0 0 1 235.042 27.038 Q 238.245 29.716 240.293 33.391 Q 242.34 37.066 243.075 41.371 L 234.885 43.261 Q 234.57 40.531 233.362 37.958 Q 232.155 35.386 230.108 33.443 A 14.579 14.579 0 0 0 226.577 30.994 A 17.673 17.673 0 0 0 225.12 30.346 Q 222.191 29.195 218.323 29.191 A 25.916 25.916 0 0 0 218.295 29.191 Q 214.515 29.191 211.207 30.608 Q 207.9 32.026 205.38 34.598 Q 202.86 37.171 201.442 40.741 A 20.316 20.316 0 0 0 200.075 46.958 A 23.896 23.896 0 0 0 200.025 48.511 L 200.025 49.771 A 23.572 23.572 0 0 0 200.425 54.205 A 18.75 18.75 0 0 0 201.443 57.698 Q 202.86 61.216 205.38 63.631 Q 207.9 66.046 211.26 67.358 A 19.435 19.435 0 0 0 217.542 68.65 A 22.439 22.439 0 0 0 218.505 68.671 A 21.198 21.198 0 0 0 221.713 68.44 Q 223.532 68.161 225.073 67.547 A 13.172 13.172 0 0 0 225.278 67.463 A 17.086 17.086 0 0 0 228.632 65.615 A 14.746 14.746 0 0 0 230.212 64.313 Q 232.26 62.371 233.467 59.851 Q 234.675 57.331 235.095 54.601 Z M 0 30.451 L 0 22.891 L 16.38 22.891 L 16.38 1.471 L 24.57 1.471 L 24.57 22.891 L 44.73 22.891 L 44.73 30.451 L 24.57 30.451 L 24.57 64.261 A 5.099 5.099 0 0 0 24.696 65.45 Q 25.079 67.04 26.622 67.341 A 4.097 4.097 0 0 0 27.405 67.411 L 42.21 67.411 L 42.21 74.971 L 24.465 74.971 Q 20.895 74.971 18.638 72.661 A 7.846 7.846 0 0 1 16.42 67.707 A 10.549 10.549 0 0 1 16.38 66.781 L 16.38 30.451 L 0 30.451 Z M 114.03 51.451 L 72.03 51.451 A 22.89 22.89 0 0 0 72.917 57.057 A 16.686 16.686 0 0 0 76.86 63.946 A 14.8 14.8 0 0 0 84.431 68.138 A 22.375 22.375 0 0 0 89.46 68.671 A 27.143 27.143 0 0 0 92.495 68.51 Q 93.985 68.342 95.279 67.999 A 15.663 15.663 0 0 0 95.865 67.831 A 16.831 16.831 0 0 0 98.534 66.765 A 13.223 13.223 0 0 0 100.538 65.521 A 12.822 12.822 0 0 0 103.272 62.733 A 11.979 11.979 0 0 0 103.688 62.108 Q 104.895 60.166 105.63 57.961 L 113.4 60.061 Q 111.195 67.306 105.262 71.873 Q 99.33 76.441 89.25 76.441 A 27.826 27.826 0 0 1 82.369 75.614 A 24.392 24.392 0 0 1 79.012 74.498 Q 74.34 72.556 70.98 68.986 A 25.22 25.22 0 0 1 66.225 61.693 A 29.247 29.247 0 0 1 65.73 60.481 A 28.643 28.643 0 0 1 64.007 53.022 A 35.158 35.158 0 0 1 63.84 49.561 L 63.84 47.041 A 27.097 27.097 0 0 1 65.026 38.958 A 25.135 25.135 0 0 1 65.783 36.856 Q 67.725 32.131 71.19 28.718 Q 74.655 25.306 79.328 23.363 A 25.719 25.719 0 0 1 88.107 21.451 A 29.897 29.897 0 0 1 89.46 21.421 A 29.28 29.28 0 0 1 94.733 21.873 A 21.283 21.283 0 0 1 100.537 23.783 A 27.138 27.138 0 0 1 105.233 26.767 A 22.198 22.198 0 0 1 108.202 29.611 Q 111.195 33.076 112.613 37.171 Q 113.981 41.124 114.028 44.49 A 17.1 17.1 0 0 1 114.03 44.731 L 114.03 51.451 Z M 324.345 74.971 L 324.345 67.411 L 342.615 67.411 L 342.615 30.451 L 326.235 30.451 L 326.235 22.891 L 350.805 22.891 L 350.805 67.411 L 367.815 67.411 L 367.815 74.971 L 324.345 74.971 Z M 168.105 66.781 L 168.105 66.151 L 166.845 66.151 A 19.369 19.369 0 0 1 164.002 70.535 A 15.727 15.727 0 0 1 159.863 73.921 Q 155.4 76.441 150.465 76.441 A 26.866 26.866 0 0 1 143.521 75.565 A 24.115 24.115 0 0 1 140.91 74.708 Q 136.5 72.976 133.193 69.563 A 23.377 23.377 0 0 1 128.959 63.446 A 28.199 28.199 0 0 1 127.995 61.216 A 27.556 27.556 0 0 1 126.52 55.528 Q 126.108 52.844 126.105 49.819 A 45.048 45.048 0 0 1 126.105 49.771 L 126.105 48.091 Q 126.105 41.686 127.995 36.751 A 25.984 25.984 0 0 1 130.825 31.302 A 22.308 22.308 0 0 1 133.192 28.403 Q 136.5 24.991 140.91 23.206 Q 145.32 21.421 150.255 21.421 A 20.939 20.939 0 0 1 156.849 22.437 A 19.02 19.02 0 0 1 159.967 23.783 A 15.954 15.954 0 0 1 165.745 29.182 A 20.273 20.273 0 0 1 166.845 31.081 L 168.105 31.081 L 168.105 22.891 L 176.295 22.891 L 176.295 64.261 A 5.099 5.099 0 0 0 176.421 65.45 Q 176.804 67.04 178.347 67.341 A 4.097 4.097 0 0 0 179.13 67.411 L 181.755 67.411 L 181.755 74.971 L 176.19 74.971 Q 172.62 74.971 170.362 72.661 A 7.846 7.846 0 0 1 168.145 67.707 A 10.549 10.549 0 0 1 168.105 66.781 Z M 491.19 49.561 L 491.19 48.301 A 22.546 22.546 0 0 0 490.657 43.318 A 19.326 19.326 0 0 0 489.825 40.583 A 19.322 19.322 0 0 0 487.493 36.24 A 17.155 17.155 0 0 0 486.097 34.546 Q 483.735 32.026 480.532 30.608 Q 477.33 29.191 473.76 29.191 A 17.448 17.448 0 0 0 467.386 30.351 A 16.772 16.772 0 0 0 466.883 30.556 Q 463.68 31.921 461.317 34.441 A 17.718 17.718 0 0 0 457.901 39.778 A 20.457 20.457 0 0 0 457.642 40.426 Q 456.33 43.891 456.33 48.091 L 456.33 49.771 Q 456.33 54.181 457.642 57.646 A 18.003 18.003 0 0 0 460.007 62.025 A 16.216 16.216 0 0 0 461.318 63.578 Q 463.68 66.046 466.83 67.358 Q 469.98 68.671 473.76 68.671 A 17.386 17.386 0 0 0 479.08 67.871 A 16.101 16.101 0 0 0 480.585 67.306 Q 483.735 65.941 486.097 63.421 Q 488.46 60.901 489.825 57.383 A 20.15 20.15 0 0 0 491.055 52.19 A 24.99 24.99 0 0 0 491.19 49.561 Z M 168.105 49.561 L 168.105 48.301 A 24.428 24.428 0 0 0 167.637 43.436 A 20.583 20.583 0 0 0 166.845 40.583 A 19.104 19.104 0 0 0 164.821 36.486 A 16.614 16.614 0 0 0 163.327 34.546 Q 161.07 32.026 157.973 30.608 Q 154.875 29.191 151.305 29.191 A 17.218 17.218 0 0 0 146.957 29.724 A 15.041 15.041 0 0 0 144.585 30.556 Q 141.54 31.921 139.283 34.388 Q 137.025 36.856 135.765 40.373 A 21.621 21.621 0 0 0 134.605 45.782 A 26.207 26.207 0 0 0 134.505 48.091 L 134.505 49.771 A 27.401 27.401 0 0 0 135.045 55.382 Q 136.093 60.391 139.177 63.683 A 15.55 15.55 0 0 0 149.875 68.623 A 21.13 21.13 0 0 0 151.305 68.671 A 17.29 17.29 0 0 0 156.085 68.026 A 15.542 15.542 0 0 0 158.077 67.306 Q 161.175 65.941 163.38 63.421 A 17.786 17.786 0 0 0 166.156 59.08 A 21.449 21.449 0 0 0 166.845 57.383 A 21.431 21.431 0 0 0 167.956 52.428 A 26.851 26.851 0 0 0 168.105 49.561 Z M 72.24 43.891 L 105.84 43.891 A 15.869 15.869 0 0 0 105.044 39.752 A 14.042 14.042 0 0 0 104.213 37.801 Q 102.795 35.071 100.538 33.181 Q 98.28 31.291 95.393 30.241 Q 92.505 29.191 89.46 29.191 A 19.208 19.208 0 0 0 84.723 29.76 A 17.204 17.204 0 0 0 83.003 30.293 A 16.525 16.525 0 0 0 78.191 33.017 A 15.689 15.689 0 0 0 77.752 33.391 Q 75.495 35.386 74.078 38.063 Q 72.66 40.741 72.24 43.891 Z M 341.341 2.221 A 7.073 7.073 0 0 0 339.255 7.351 A 8.555 8.555 0 0 0 339.256 7.446 A 7.073 7.073 0 0 0 341.408 12.548 A 8.547 8.547 0 0 0 341.475 12.615 A 7.073 7.073 0 0 0 346.605 14.701 A 8.555 8.555 0 0 0 346.7 14.7 A 7.073 7.073 0 0 0 351.802 12.548 A 8.547 8.547 0 0 0 351.869 12.481 A 7.073 7.073 0 0 0 353.955 7.351 A 8.555 8.555 0 0 0 353.954 7.256 A 7.073 7.073 0 0 0 351.802 2.153 A 8.547 8.547 0 0 0 351.735 2.087 A 7.073 7.073 0 0 0 346.605 0.001 A 8.555 8.555 0 0 0 346.51 0.001 A 7.073 7.073 0 0 0 341.408 2.153 A 8.547 8.547 0 0 0 341.341 2.221 Z" vector-effect="non-scaling-stroke"/></g></svg>