<svg width="185.325" height="74.97" viewBox="0 0 185.325 74.97" xmlns="http://www.w3.org/2000/svg"><g id="svgGroup" stroke-linecap="round" fill-rule="evenodd" font-size="9pt" stroke="#000" stroke-width="0.25mm" fill="#000" style="stroke:#000;stroke-width:0.25mm;fill:#000"><path d="M 60.48 21.42 L 52.29 73.5 L 37.17 73.5 L 30.87 25.2 L 29.61 25.2 L 23.31 73.5 L 8.19 73.5 L 0 21.42 L 8.4 21.42 L 15.33 69.72 L 16.59 69.72 L 22.68 21.42 L 37.8 21.42 L 43.89 69.72 L 45.15 69.72 L 52.08 21.42 L 60.48 21.42 Z M 119.49 49.98 L 77.49 49.98 A 22.89 22.89 0 0 0 78.377 55.586 A 16.686 16.686 0 0 0 82.32 62.475 A 14.8 14.8 0 0 0 89.891 66.667 A 22.375 22.375 0 0 0 94.92 67.2 A 27.143 27.143 0 0 0 97.955 67.039 Q 99.445 66.871 100.739 66.528 A 15.663 15.663 0 0 0 101.325 66.36 A 16.831 16.831 0 0 0 103.994 65.294 A 13.223 13.223 0 0 0 105.998 64.05 A 12.822 12.822 0 0 0 108.732 61.262 A 11.979 11.979 0 0 0 109.148 60.638 Q 110.355 58.695 111.09 56.49 L 118.86 58.59 Q 116.655 65.835 110.722 70.403 Q 104.79 74.97 94.71 74.97 A 27.826 27.826 0 0 1 87.829 74.143 A 24.392 24.392 0 0 1 84.472 73.028 Q 79.8 71.085 76.44 67.515 A 25.22 25.22 0 0 1 71.685 60.222 A 29.247 29.247 0 0 1 71.19 59.01 A 28.643 28.643 0 0 1 69.467 51.551 A 35.158 35.158 0 0 1 69.3 48.09 L 69.3 45.57 A 27.097 27.097 0 0 1 70.486 37.487 A 25.135 25.135 0 0 1 71.243 35.385 Q 73.185 30.66 76.65 27.248 Q 80.115 23.835 84.788 21.893 A 25.719 25.719 0 0 1 93.567 19.98 A 29.897 29.897 0 0 1 94.92 19.95 A 29.28 29.28 0 0 1 100.193 20.402 A 21.283 21.283 0 0 1 105.997 22.313 A 27.138 27.138 0 0 1 110.693 25.296 A 22.198 22.198 0 0 1 113.662 28.14 Q 116.655 31.605 118.072 35.7 Q 119.441 39.653 119.488 43.019 A 17.1 17.1 0 0 1 119.49 43.26 L 119.49 49.98 Z M 142.065 65.52 L 142.065 73.5 L 133.875 73.5 L 133.875 0 L 142.065 0 L 142.065 29.61 L 143.325 29.61 Q 146.055 24.885 150.885 22.418 Q 155.715 19.95 161.385 19.95 Q 166.215 19.95 170.52 21.735 Q 174.825 23.52 178.133 26.88 A 23.159 23.159 0 0 1 182.182 32.524 A 28.299 28.299 0 0 1 183.383 35.175 A 27.455 27.455 0 0 1 185.004 41.517 A 35.96 35.96 0 0 1 185.325 46.41 L 185.325 48.51 Q 185.325 54.915 183.435 59.85 A 25.599 25.599 0 0 1 180.696 65.147 A 21.678 21.678 0 0 1 178.237 68.145 Q 174.93 71.505 170.52 73.238 Q 166.11 74.97 161.175 74.97 A 23.679 23.679 0 0 1 156.521 74.496 A 26.371 26.371 0 0 1 156.03 74.392 Q 153.405 73.815 151.043 72.608 Q 148.68 71.4 146.685 69.668 Q 144.69 67.935 143.325 65.52 L 142.065 65.52 Z M 176.925 48.51 L 176.925 46.41 A 23.207 23.207 0 0 0 176.515 41.964 A 18.851 18.851 0 0 0 175.612 38.798 Q 174.3 35.385 171.938 32.918 Q 169.575 30.45 166.373 29.085 A 17.327 17.327 0 0 0 159.61 27.72 A 19.732 19.732 0 0 0 159.495 27.72 Q 155.82 27.72 152.67 29.138 Q 149.52 30.555 147.158 33.075 Q 144.795 35.595 143.43 39.113 A 20.297 20.297 0 0 0 142.15 44.773 A 24.374 24.374 0 0 0 142.065 46.83 L 142.065 48.09 A 23.528 23.528 0 0 0 142.497 52.684 A 19.318 19.318 0 0 0 143.43 55.912 A 19.322 19.322 0 0 0 145.762 60.255 A 17.155 17.155 0 0 0 147.158 61.95 Q 149.52 64.47 152.67 65.835 A 16.791 16.791 0 0 0 158.811 67.188 A 19.404 19.404 0 0 0 159.495 67.2 A 18.97 18.97 0 0 0 163.974 66.687 A 16.402 16.402 0 0 0 166.425 65.887 Q 169.575 64.575 171.938 62.16 A 16.323 16.323 0 0 0 175.083 57.542 A 19.397 19.397 0 0 0 175.612 56.28 A 20.096 20.096 0 0 0 176.755 51.496 A 25.511 25.511 0 0 0 176.925 48.51 Z M 77.7 42.42 L 111.3 42.42 A 15.869 15.869 0 0 0 110.504 38.281 A 14.042 14.042 0 0 0 109.673 36.33 Q 108.255 33.6 105.997 31.71 Q 103.74 29.82 100.852 28.77 Q 97.965 27.72 94.92 27.72 A 19.208 19.208 0 0 0 90.183 28.29 A 17.204 17.204 0 0 0 88.463 28.823 A 16.525 16.525 0 0 0 83.651 31.546 A 15.689 15.689 0 0 0 83.212 31.92 Q 80.955 33.915 79.538 36.593 Q 78.12 39.27 77.7 42.42 Z" vector-effect="non-scaling-stroke"/></g></svg>